# xmcd
#
# Track frame offsets:
#	150
#	19028
#	40444
#	58228
#	83858
#	105508
#	121965
#	144922
#	161638
#	177635
#	195532
#	219912
#	234799
#	251462
#	270810
#	291902
#	304360
#	321823
#
# Disc length: 4452 seconds
#
# Revision: 0
# Processed by: cddbd v1.5.2PL0 Copyright (c) Steve Scherf et al.
# Submitted via: EZCDAudioConverter 4.0.5.1
#
DISCID=f8116212
DTITLE=Jukka Orma - Orman oppivuodet
DYEAR=2016
DGENRE=
TTITLE0=Unikuvat
TTITLE1=Aamunkoiton maa
TTITLE2=Majakka
TTITLE3=Himon vallassa
TTITLE4=Yön mustat silmät
TTITLE5=Käärmeviinaa
TTITLE6=Laila
TTITLE7=Musta Moottori
TTITLE8=Ihmisoikeuksien julistus
TTITLE9=Xyneitä riittää
TTITLE10=Kenet Vuuduu saa
TTITLE11=…ja rukoillaan
TTITLE12=Bengali Blues
TTITLE13=Kukkuluuruu
TTITLE14=Aavelaiva
TTITLE15=Supersihkoo
TTITLE16=Aika
TTITLE17=Kirsikkapuu
EXTD=
EXTT0=
EXTT1=
EXTT2=
EXTT3=
EXTT4=
EXTT5=
EXTT6=
EXTT7=
EXTT8=
EXTT9=
EXTT10=
EXTT11=
EXTT12=
EXTT13=
EXTT14=
EXTT15=
EXTT16=
EXTT17=
PLAYORDER=
